<svg xmlns="http://www.w3.org/2000/svg" width="512" height="512"><path xmlns="http://www.w3.org/2000/svg" d="M391 332c-24.15 0-46.107 9.564-62.288 25.1l-96.254-59.633C237.95 284.739 241 270.72 241 256s-3.05-28.739-8.543-41.466l96.254-59.633C344.893 170.436 366.85 180 391 180c49.626 0 90-40.374 90-90S440.626 0 391 0s-90 40.374-90 90c0 14.651 3.521 28.495 9.758 40.732l-94.001 58.238C197.481 165.786 168.436 151 136 151c-57.897 0-105 47.103-105 105s47.103 105 105 105c32.436 0 61.481-14.786 80.757-37.97l94.001 58.238C304.521 393.505 301 407.349 301 422c0 49.626 40.374 90 90 90s90-40.374 90-90-40.374-90-90-90zm0-302c33.084 0 60 26.916 60 60s-26.916 60-60 60-60-26.916-60-60 26.916-60 60-60zM136 331c-41.355 0-75-33.645-75-75s33.645-75 75-75 75 33.645 75 75-33.645 75-75 75zm255 151c-33.084 0-60-26.916-60-60s26.916-60 60-60 60 26.916 60 60-26.916 60-60 60z" fill="#a9946e" data-original="#000000"/></svg>